<svg xmlns="http://www.w3.org/2000/svg" width="1240" height="1240"><path d="M223 51.544c-31.075 25.533-56.455 47.003-56.399 47.711.055.709 23.104 40.519 51.219 88.467l51.118 87.179-29.033 71.299c-15.968 39.215-29.357 71.631-29.754 72.035-.397.405-45.676 8.175-100.62 17.267-54.944 9.093-99.982 16.637-100.084 16.765-.547.688-1.139 152.735-.595 152.744 1.315.021 206.282 52.79 206.708 53.216.244.243 13.234 31.665 28.868 69.825l28.425 69.383-2.676 3.606c-1.473 1.984-30.959 39.876-65.526 84.205-34.568 44.33-62.918 80.85-63 81.157-.304 1.126 110.678 116.678 111.789 116.392.631-.162 41.378-27.52 90.547-60.795 49.17-33.275 89.875-60.372 90.456-60.217.581.156 33.02 14.445 72.087 31.753l71.03 31.469 23.907 104.807 23.906 104.807 45.064-.317c24.785-.174 59.491-.589 77.126-.921l32.064-.603 21.168-107.038c11.643-58.87 21.321-107.189 21.507-107.375.185-.186 29.331-11.829 64.768-25.873 35.436-14.045 67.667-26.834 71.624-28.422l7.193-2.887 90.249 58.438c85.689 55.486 90.333 58.349 91.916 56.659.917-.979 18.463-24.955 38.993-53.28 20.529-28.325 39.012-53.803 41.074-56.618l3.749-5.117-102.107-96.383c-56.158-53.01-102.432-96.516-102.83-96.681-.398-.164-5.158 3.671-10.578 8.523-93.728 83.915-191.735 132.894-287.853 143.855-16.68 1.902-52.331 2.169-67.5.506-58.185-6.379-108.255-25.476-156.742-59.782-14.435-10.213-28.895-22.709-44.771-38.69-41.812-42.09-74.617-95.173-94.931-153.613-36.215-104.187-33.002-215.242 9.078-313.761 10.053-23.536 19.876-41.507 35.935-65.739 28.67-43.263 62.821-78.845 108.239-112.775 7.32-5.468 13.17-10.056 13-10.195-3.01-2.475-99.14-64.476-163.127-105.213-46.101-29.349-84.801-54-86-54.779-2.077-1.35-4.888.806-58.681 45.006m468.045 110.485c-12.027 2.528-22.918 11.26-28.352 22.73L659.5 191.5l-.5 140-.5 140-6.5 6.593c-12.735 12.918-18.088 25.583-18.783 44.44-.531 14.394.825 20.934 6.941 33.467 7.84 16.067 24.871 29.799 42.842 34.543 12.515 3.304 30.578 2.128 42.15-2.745l4.651-1.959 94.486 54.572c103.255 59.636 100.646 58.331 114.507 57.287 28.906-2.18 46.403-33.319 33.524-59.663-5.507-11.266-5.512-11.269-109.318-71.122l-96.5-55.641-2.552-6.886c-4.252-11.471-9.097-19.439-16.194-26.636L741 470.902V333.133c0-154.043.53-142.846-7.304-154.294-4.46-6.518-11.753-12.2-19.512-15.205-5.289-2.047-17.126-2.869-23.139-1.605" fill="undefined" fill-rule="evenodd"/></svg>